# xmcd
#
# Track frame offsets:
#	150
#	20145
#	38159
#	56303
#	74785
#	95515
#	115056
#	138909
#	156517
#	187944
#	204752
#	230648
#	258856
#	281335
#	304023
#	328334
#
# Disc length: 4796 seconds
#
# Revision: 1
# Processed by: cddbd v1.5.2PL0 Copyright (c) Steve Scherf et al.
# Submitted via: audiograbber 1.83.01
#
DISCID=e312ba10
DTITLE=deYPPIES - live, Yppenplatz 2
DYEAR=2007
DGENRE=
TTITLE0=Piccolo Rag
TTITLE1=Shake That Thing
TTITLE2=Got The Blues
TTITLE3=Wabash Rag
TTITLE4=Margie
TTITLE5=That Will Never Happen No More
TTITLE6=Hey Hey
TTITLE7=Aint Nobody But You
TTITLE8=Summertime
TTITLE9=Corinna, Corinna
TTITLE10=Sunny Side Of The Street
TTITLE11=Saint Luis Blues
TTITLE12=Lucky Brass
TTITLE13=Sentimental Journey
TTITLE14=Roadhouse Blues
TTITLE15=Black Eyes
EXTD=Walter Aigner, Thomas Anderl, Claudia Furtner, Roland Gradischnig, Erhard 
EXTD=Waldner
EXTT0=
EXTT1=
EXTT2=
EXTT3=
EXTT4=
EXTT5=
EXTT6=
EXTT7=
EXTT8=
EXTT9=
EXTT10=
EXTT11=
EXTT12=
EXTT13=
EXTT14=
EXTT15=
PLAYORDER=
